<mxfile host="app.diagrams.net" modified="2024-03-11T04:20:07.437Z" agent="Mozilla/5.0 (Windows NT 10.0; Win64; x64) AppleWebKit/537.36 (KHTML, like Gecko) Chrome/122.0.0.0 Safari/537.36" version="24.0.4" etag="1aWYouVG74s1KBqKi_5p" type="github">
  <diagram name="페이지-1" id="fSf-zVloSbyUjn8q754t">
    <mxGraphModel>
      <root>
        <mxCell id="0" />
        <mxCell id="1" parent="0" />
      </root>
    </mxGraphModel>
  </diagram>
</mxfile>
